<svg width="1134" height="1815" viewBox="0 0 1134 1815" fill="none" xmlns="http://www.w3.org/2000/svg">
<rect x="-1" y="1" width="35.7953" height="16.8976" transform="matrix(-1 0 0 1 953.692 468)" fill="white"/>
<rect x="-1" y="1" width="35.7953" height="16.8976" transform="matrix(-1 0 0 1 953.692 468)" stroke="#0000FF" stroke-width="2" stroke-linecap="round" stroke-linejoin="round" stroke-dasharray="7 7"/>
<rect x="-1" y="1" width="35.7953" height="16.8976" transform="matrix(-1 0 0 1 790.897 468)" fill="white"/>
<rect x="-1" y="1" width="35.7953" height="16.8976" transform="matrix(-1 0 0 1 790.897 468)" stroke="#0000FF" stroke-width="2" stroke-linecap="round" stroke-linejoin="round" stroke-dasharray="7 7"/>
<rect x="1" y="1" width="36" height="17" transform="matrix(4.37114e-08 1 1 -4.37114e-08 990.795 647.898)" fill="white"/>
<rect x="1" y="1" width="36" height="17" transform="matrix(4.37114e-08 1 1 -4.37114e-08 990.795 647.898)" stroke="#0000FF" stroke-width="2" stroke-linecap="round" stroke-linejoin="round" stroke-dasharray="7 7"/>
<rect x="1008.79" y="525.898" width="36" height="17" transform="rotate(90 1008.79 525.898)" fill="white"/>
<rect x="1008.79" y="525.898" width="36" height="17" transform="rotate(90 1008.79 525.898)" stroke="#0000FF" stroke-width="2" stroke-linecap="round" stroke-linejoin="round" stroke-dasharray="7 7"/>
</svg>
