<svg width="1134" height="1815" viewBox="0 0 1134 1815" fill="none" xmlns="http://www.w3.org/2000/svg">
<rect x="837.517" y="526.803" width="39" height="17" rx="8.5" fill="#696969"/>
<path d="M843.307 538.803L846.02 533.434V533.389H842.859V532.258H847.452V533.405L844.735 538.803H843.307ZM848.084 538.886C847.873 538.886 847.692 538.812 847.541 538.662C847.392 538.511 847.317 538.33 847.317 538.119C847.317 537.91 847.392 537.731 847.541 537.582C847.692 537.433 847.873 537.358 848.084 537.358C848.289 537.358 848.468 537.433 848.621 537.582C848.774 537.731 848.851 537.91 848.851 538.119C848.851 538.26 848.815 538.389 848.743 538.506C848.672 538.621 848.58 538.714 848.464 538.784C848.349 538.852 848.223 538.886 848.084 538.886ZM852.259 538.947C851.709 538.945 851.236 538.809 850.84 538.541C850.446 538.273 850.142 537.884 849.929 537.374C849.718 536.865 849.614 536.253 849.616 535.537C849.616 534.823 849.721 534.215 849.932 533.712C850.145 533.209 850.449 532.827 850.843 532.564C851.239 532.3 851.711 532.168 852.259 532.168C852.807 532.168 853.277 532.3 853.672 532.564C854.068 532.829 854.373 533.212 854.586 533.715C854.799 534.216 854.904 534.823 854.902 535.537C854.902 536.255 854.796 536.868 854.582 537.378C854.372 537.887 854.069 538.276 853.675 538.544C853.281 538.813 852.809 538.947 852.259 538.947ZM852.259 537.8C852.634 537.8 852.933 537.611 853.157 537.234C853.381 536.857 853.492 536.291 853.489 535.537C853.489 535.04 853.438 534.627 853.336 534.297C853.236 533.966 853.093 533.718 852.908 533.552C852.724 533.386 852.508 533.303 852.259 533.303C851.886 533.303 851.588 533.489 851.364 533.862C851.14 534.235 851.027 534.793 851.025 535.537C851.025 536.04 851.075 536.459 851.175 536.796C851.278 537.131 851.422 537.382 851.607 537.55C851.792 537.716 852.01 537.8 852.259 537.8ZM858.279 538.893C857.828 538.893 857.425 538.809 857.071 538.643C856.72 538.477 856.441 538.248 856.234 537.956C856.027 537.664 855.92 537.33 855.911 536.953H857.254C857.268 537.206 857.375 537.412 857.573 537.569C857.771 537.727 858.007 537.806 858.279 537.806C858.497 537.806 858.689 537.758 858.855 537.662C859.023 537.564 859.154 537.429 859.248 537.256C859.344 537.082 859.392 536.881 859.392 536.655C859.392 536.425 859.343 536.223 859.245 536.048C859.149 535.873 859.016 535.737 858.845 535.639C858.675 535.541 858.48 535.491 858.26 535.489C858.069 535.489 857.882 535.528 857.701 535.607C857.522 535.686 857.382 535.794 857.282 535.93L856.052 535.709L856.362 532.258H860.363V533.389H857.503L857.333 535.029H857.372C857.487 534.867 857.66 534.732 857.893 534.626C858.125 534.519 858.385 534.466 858.673 534.466C859.067 534.466 859.418 534.559 859.727 534.744C860.036 534.93 860.28 535.184 860.459 535.508C860.638 535.83 860.727 536.2 860.724 536.62C860.727 537.061 860.624 537.453 860.418 537.796C860.213 538.137 859.926 538.406 859.558 538.602C859.191 538.796 858.765 538.893 858.279 538.893ZM863.785 538.803V533.894H865.083V534.76H865.141C865.243 534.472 865.413 534.246 865.652 534.079C865.891 533.913 866.176 533.83 866.508 533.83C866.845 533.83 867.132 533.914 867.368 534.083C867.605 534.249 867.762 534.475 867.841 534.76H867.892C867.992 534.479 868.174 534.254 868.436 534.086C868.7 533.915 869.012 533.83 869.372 533.83C869.83 533.83 870.202 533.976 870.487 534.268C870.775 534.558 870.919 534.969 870.919 535.502V538.803H869.561V535.77C869.561 535.497 869.488 535.293 869.343 535.156C869.198 535.02 869.017 534.952 868.8 534.952C868.553 534.952 868.36 535.031 868.221 535.188C868.083 535.344 868.014 535.55 868.014 535.805V538.803H866.694V535.741C866.694 535.501 866.625 535.309 866.486 535.166C866.35 535.023 866.17 534.952 865.946 534.952C865.795 534.952 865.658 534.99 865.537 535.067C865.417 535.142 865.323 535.247 865.252 535.383C865.182 535.518 865.147 535.675 865.147 535.856V538.803H863.785Z" fill="white"/>
<rect x="976.517" y="485.303" width="41" height="17" rx="8.5" fill="#696969"/>
<path d="M984.439 497.393C983.987 497.393 983.584 497.31 983.231 497.143C982.879 496.977 982.6 496.748 982.393 496.456C982.186 496.164 982.079 495.83 982.07 495.453H983.413C983.428 495.706 983.534 495.912 983.732 496.069C983.93 496.227 984.166 496.306 984.439 496.306C984.656 496.306 984.848 496.258 985.014 496.162C985.182 496.064 985.313 495.929 985.407 495.756C985.503 495.582 985.551 495.381 985.551 495.155C985.551 494.925 985.502 494.723 985.404 494.548C985.308 494.373 985.175 494.237 985.004 494.139C984.834 494.041 984.639 493.991 984.419 493.989C984.228 493.989 984.041 494.028 983.86 494.107C983.681 494.186 983.542 494.294 983.441 494.43L982.211 494.209L982.521 490.758H986.522V491.889H983.662L983.493 493.529H983.531C983.646 493.367 983.82 493.232 984.052 493.126C984.284 493.019 984.544 492.966 984.832 492.966C985.226 492.966 985.577 493.059 985.886 493.244C986.195 493.43 986.439 493.684 986.618 494.008C986.797 494.33 986.886 494.701 986.884 495.12C986.886 495.561 986.783 495.953 986.577 496.296C986.372 496.637 986.086 496.906 985.717 497.102C985.351 497.296 984.924 497.393 984.439 497.393ZM988.446 497.386C988.235 497.386 988.054 497.312 987.903 497.163C987.754 497.011 987.679 496.83 987.679 496.619C987.679 496.41 987.754 496.231 987.903 496.082C988.054 495.933 988.235 495.859 988.446 495.859C988.651 495.859 988.83 495.933 988.983 496.082C989.137 496.231 989.213 496.41 989.213 496.619C989.213 496.76 989.177 496.889 989.105 497.006C989.035 497.121 988.942 497.214 988.827 497.284C988.712 497.352 988.585 497.386 988.446 497.386ZM990.219 496.153V495.063L992.952 490.758H993.892V492.266H993.336L991.613 494.992V495.044H995.496V496.153H990.219ZM993.361 497.303V495.82L993.387 495.338V490.758H994.684V497.303H993.361ZM998.838 497.393C998.36 497.393 997.935 497.311 997.562 497.147C997.192 496.98 996.899 496.752 996.683 496.463C996.47 496.171 996.361 495.834 996.354 495.453H997.748C997.756 495.612 997.808 495.753 997.904 495.875C998.002 495.994 998.132 496.087 998.294 496.153C998.456 496.219 998.638 496.252 998.841 496.252C999.052 496.252 999.238 496.214 999.4 496.14C999.562 496.065 999.689 495.962 999.78 495.83C999.872 495.698 999.918 495.545 999.918 495.373C999.918 495.198 999.869 495.044 999.771 494.909C999.675 494.773 999.536 494.666 999.355 494.59C999.176 494.513 998.963 494.475 998.716 494.475H998.106V493.458H998.716C998.925 493.458 999.109 493.422 999.269 493.35C999.431 493.277 999.557 493.177 999.646 493.049C999.736 492.919 999.78 492.768 999.78 492.595C999.78 492.431 999.741 492.288 999.662 492.164C999.585 492.038 999.477 491.94 999.336 491.87C999.198 491.8 999.036 491.764 998.85 491.764C998.663 491.764 998.491 491.799 998.336 491.867C998.18 491.933 998.056 492.028 997.962 492.151C997.868 492.275 997.818 492.42 997.812 492.586H996.485C996.492 492.209 996.599 491.876 996.808 491.589C997.017 491.301 997.298 491.076 997.652 490.914C998.008 490.75 998.409 490.668 998.857 490.668C999.308 490.668 999.704 490.75 1000.04 490.914C1000.38 491.078 1000.64 491.3 1000.83 491.579C1001.02 491.856 1001.12 492.167 1001.11 492.512C1001.12 492.879 1001 493.185 1000.77 493.43C1000.54 493.675 1000.25 493.83 999.879 493.896V493.947C1000.36 494.009 1000.73 494.176 1000.98 494.449C1001.23 494.72 1001.36 495.058 1001.36 495.465C1001.36 495.838 1001.25 496.17 1001.03 496.459C1000.82 496.749 1000.52 496.977 1000.14 497.143C999.762 497.31 999.328 497.393 998.838 497.393ZM1004.45 497.303V492.394H1005.74V493.26H1005.8C1005.9 492.973 1006.07 492.746 1006.31 492.579C1006.55 492.413 1006.84 492.33 1007.17 492.33C1007.51 492.33 1007.79 492.414 1008.03 492.583C1008.27 492.749 1008.42 492.975 1008.5 493.26H1008.55C1008.65 492.979 1008.83 492.754 1009.1 492.586C1009.36 492.415 1009.67 492.33 1010.03 492.33C1010.49 492.33 1010.86 492.476 1011.15 492.768C1011.44 493.058 1011.58 493.469 1011.58 494.002V497.303H1010.22V494.27C1010.22 493.997 1010.15 493.793 1010 493.656C1009.86 493.52 1009.68 493.452 1009.46 493.452C1009.21 493.452 1009.02 493.531 1008.88 493.688C1008.74 493.844 1008.67 494.05 1008.67 494.305V497.303H1007.35V494.241C1007.35 494.001 1007.29 493.809 1007.15 493.666C1007.01 493.523 1006.83 493.452 1006.61 493.452C1006.46 493.452 1006.32 493.49 1006.2 493.567C1006.08 493.642 1005.98 493.747 1005.91 493.883C1005.84 494.018 1005.81 494.175 1005.81 494.356V497.303H1004.45Z" fill="white"/>
<rect x="847.219" y="468.949" width="40" height="17" rx="8.5" fill="#696969"/>
<path d="M855.169 481.038C854.691 481.038 854.266 480.956 853.893 480.792C853.523 480.626 853.23 480.398 853.014 480.108C852.801 479.816 852.692 479.48 852.685 479.098H854.079C854.087 479.258 854.139 479.399 854.235 479.52C854.333 479.639 854.463 479.732 854.625 479.798C854.787 479.864 854.969 479.897 855.172 479.897C855.383 479.897 855.569 479.86 855.731 479.785C855.893 479.711 856.02 479.607 856.111 479.475C856.203 479.343 856.249 479.191 856.249 479.018C856.249 478.844 856.2 478.689 856.102 478.555C856.006 478.418 855.867 478.312 855.686 478.235C855.507 478.159 855.294 478.12 855.047 478.12H854.437V477.104H855.047C855.256 477.104 855.44 477.068 855.6 476.995C855.762 476.923 855.888 476.823 855.977 476.695C856.067 476.565 856.111 476.414 856.111 476.241C856.111 476.077 856.072 475.933 855.993 475.809C855.916 475.684 855.808 475.586 855.667 475.515C855.529 475.445 855.367 475.41 855.181 475.41C854.994 475.41 854.822 475.444 854.667 475.512C854.511 475.578 854.387 475.673 854.293 475.797C854.199 475.92 854.149 476.065 854.143 476.231H852.816C852.823 475.854 852.93 475.522 853.139 475.234C853.348 474.947 853.629 474.722 853.983 474.56C854.339 474.396 854.74 474.314 855.188 474.314C855.639 474.314 856.035 474.396 856.373 474.56C856.712 474.724 856.975 474.945 857.163 475.225C857.353 475.502 857.446 475.813 857.444 476.158C857.446 476.524 857.332 476.83 857.102 477.075C856.874 477.32 856.577 477.476 856.21 477.542V477.593C856.692 477.655 857.058 477.822 857.31 478.095C857.563 478.365 857.689 478.704 857.687 479.111C857.689 479.484 857.582 479.815 857.364 480.105C857.149 480.395 856.852 480.623 856.473 480.789C856.093 480.955 855.659 481.038 855.169 481.038ZM859.306 481.032C859.095 481.032 858.914 480.957 858.762 480.808C858.613 480.657 858.539 480.476 858.539 480.265C858.539 480.056 858.613 479.877 858.762 479.728C858.914 479.579 859.095 479.504 859.306 479.504C859.51 479.504 859.689 479.579 859.843 479.728C859.996 479.877 860.073 480.056 860.073 480.265C860.073 480.405 860.037 480.534 859.964 480.651C859.894 480.766 859.801 480.859 859.686 480.929C859.571 480.998 859.444 481.032 859.306 481.032ZM861.191 480.949L863.904 475.579V475.535H860.743V474.403H865.336V475.551L862.619 480.949H861.191ZM866.284 480.949V479.952L868.614 477.794C868.812 477.602 868.979 477.43 869.113 477.276C869.249 477.123 869.353 476.973 869.423 476.826C869.493 476.677 869.528 476.516 869.528 476.343C869.528 476.151 869.485 475.986 869.397 475.848C869.31 475.707 869.191 475.6 869.039 475.525C868.888 475.448 868.716 475.41 868.525 475.41C868.324 475.41 868.15 475.45 868.001 475.531C867.851 475.612 867.736 475.728 867.655 475.88C867.574 476.031 867.534 476.211 867.534 476.42H866.22C866.22 475.992 866.317 475.62 866.511 475.304C866.705 474.989 866.977 474.745 867.326 474.573C867.676 474.4 868.078 474.314 868.534 474.314C869.003 474.314 869.411 474.397 869.758 474.563C870.108 474.727 870.379 474.955 870.573 475.247C870.767 475.539 870.864 475.873 870.864 476.251C870.864 476.498 870.815 476.742 870.717 476.982C870.621 477.223 870.45 477.491 870.203 477.785C869.955 478.077 869.607 478.427 869.158 478.836L868.202 479.773V479.817H870.951V480.949H866.284ZM874.049 480.949V476.04H875.347V476.906H875.404C875.506 476.618 875.677 476.391 875.916 476.225C876.154 476.059 876.44 475.976 876.772 475.976C877.109 475.976 877.395 476.06 877.632 476.228C877.868 476.394 878.026 476.62 878.105 476.906H878.156C878.256 476.624 878.437 476.4 878.699 476.231C878.963 476.061 879.276 475.976 879.636 475.976C880.094 475.976 880.466 476.122 880.751 476.414C881.039 476.703 881.183 477.115 881.183 477.647V480.949H879.824V477.916C879.824 477.643 879.752 477.438 879.607 477.302C879.462 477.166 879.281 477.097 879.064 477.097C878.816 477.097 878.624 477.176 878.485 477.334C878.347 477.49 878.277 477.695 878.277 477.951V480.949H876.957V477.887C876.957 477.646 876.888 477.454 876.75 477.312C876.613 477.169 876.433 477.097 876.21 477.097C876.058 477.097 875.922 477.136 875.8 477.213C875.681 477.287 875.586 477.393 875.516 477.529C875.446 477.663 875.411 477.821 875.411 478.002V480.949H874.049Z" fill="white"/>
<rect x="694.24" y="443.829" width="39" height="17" rx="8.5" fill="#696969"/>
<path d="M702.618 449.283L702.618 455.829L701.235 455.829L701.235 450.597L701.196 450.597L699.697 451.536L699.697 450.309L701.318 449.283L702.618 449.283ZM704.631 455.912C704.42 455.912 704.239 455.837 704.088 455.688C703.939 455.537 703.864 455.356 703.864 455.145C703.864 454.936 703.939 454.757 704.088 454.608C704.239 454.459 704.42 454.384 704.631 454.384C704.836 454.384 705.015 454.459 705.168 454.608C705.322 454.757 705.398 454.936 705.398 455.145C705.398 455.285 705.362 455.414 705.29 455.531C705.219 455.647 705.127 455.739 705.012 455.809C704.896 455.878 704.77 455.912 704.631 455.912ZM708.841 455.918C708.389 455.918 707.987 455.835 707.633 455.669C707.281 455.503 707.002 455.274 706.796 454.982C706.589 454.69 706.481 454.355 706.473 453.978L707.815 453.978C707.83 454.232 707.937 454.437 708.135 454.595C708.333 454.753 708.568 454.832 708.841 454.832C709.058 454.832 709.25 454.784 709.416 454.688C709.585 454.59 709.716 454.454 709.81 454.282C709.905 454.107 709.953 453.907 709.953 453.681C709.953 453.451 709.904 453.248 709.806 453.074C709.71 452.899 709.577 452.763 709.407 452.665C709.236 452.567 709.041 452.517 708.822 452.514C708.63 452.514 708.444 452.554 708.263 452.633C708.084 452.711 707.944 452.819 707.844 452.955L706.614 452.735L706.924 449.283L710.925 449.283L710.925 450.415L708.065 450.415L707.895 452.054L707.933 452.054C708.049 451.892 708.222 451.758 708.454 451.651C708.687 451.545 708.947 451.492 709.234 451.492C709.628 451.492 709.98 451.584 710.289 451.77C710.598 451.955 710.842 452.21 711.021 452.534C711.2 452.855 711.288 453.226 711.286 453.646C711.288 454.087 711.186 454.479 710.979 454.822C710.775 455.163 710.488 455.431 710.12 455.627C709.753 455.821 709.327 455.918 708.841 455.918ZM714.693 455.918C714.201 455.918 713.763 455.838 713.38 455.678C712.998 455.517 712.699 455.296 712.481 455.017C712.264 454.738 712.155 454.421 712.155 454.068C712.155 453.795 712.217 453.545 712.341 453.317C712.467 453.086 712.637 452.896 712.852 452.745C713.067 452.591 713.308 452.493 713.574 452.45L713.574 452.406C713.225 452.335 712.942 452.166 712.724 451.898C712.507 451.627 712.398 451.313 712.398 450.955C712.398 450.616 712.497 450.314 712.696 450.05C712.894 449.784 713.165 449.575 713.511 449.424C713.858 449.27 714.252 449.194 714.693 449.194C715.134 449.194 715.527 449.27 715.872 449.424C716.22 449.577 716.492 449.787 716.691 450.053C716.889 450.318 716.989 450.618 716.991 450.955C716.989 451.315 716.878 451.629 716.659 451.898C716.439 452.166 716.158 452.335 715.815 452.406L715.815 452.45C716.077 452.493 716.315 452.591 716.528 452.745C716.743 452.896 716.913 453.086 717.039 453.317C717.167 453.545 717.232 453.795 717.234 454.068C717.232 454.421 717.122 454.738 716.905 455.017C716.687 455.296 716.387 455.517 716.003 455.678C715.622 455.838 715.185 455.918 714.693 455.918ZM714.693 454.902C714.913 454.902 715.104 454.862 715.268 454.784C715.432 454.703 715.56 454.592 715.652 454.451C715.746 454.308 715.792 454.144 715.792 453.959C715.792 453.769 715.745 453.602 715.649 453.457C715.553 453.31 715.423 453.195 715.259 453.112C715.095 453.027 714.906 452.984 714.693 452.984C714.482 452.984 714.294 453.027 714.127 453.112C713.961 453.195 713.83 453.31 713.734 453.457C713.641 453.602 713.594 453.769 713.594 453.959C713.594 454.144 713.639 454.308 713.731 454.451C713.823 454.592 713.952 454.703 714.118 454.784C714.284 454.862 714.476 454.902 714.693 454.902ZM714.693 451.977C714.876 451.977 715.039 451.94 715.182 451.866C715.325 451.791 715.437 451.688 715.518 451.556C715.599 451.423 715.639 451.271 715.639 451.099C715.639 450.928 715.599 450.779 715.518 450.651C715.437 450.521 715.326 450.42 715.185 450.347C715.045 450.273 714.881 450.236 714.693 450.236C714.508 450.236 714.344 450.273 714.201 450.347C714.058 450.42 713.946 450.521 713.865 450.651C713.786 450.779 713.747 450.928 713.747 451.099C713.747 451.271 713.788 451.423 713.868 451.556C713.949 451.688 714.061 451.791 714.204 451.866C714.347 451.94 714.51 451.977 714.693 451.977ZM720.297 455.829L720.297 450.92L721.595 450.92L721.595 451.786L721.652 451.786C721.755 451.498 721.925 451.271 722.164 451.105C722.402 450.939 722.688 450.856 723.02 450.856C723.357 450.856 723.644 450.94 723.88 451.108C724.117 451.274 724.274 451.5 724.353 451.786L724.404 451.786C724.504 451.504 724.685 451.28 724.948 451.111C725.212 450.941 725.524 450.856 725.884 450.856C726.342 450.856 726.714 451.002 726.999 451.294C727.287 451.583 727.431 451.995 727.431 452.527L727.431 455.829L726.073 455.829L726.073 452.796C726.073 452.523 726 452.318 725.855 452.182C725.71 452.046 725.529 451.977 725.312 451.977C725.065 451.977 724.872 452.056 724.733 452.214C724.595 452.37 724.526 452.575 724.526 452.831L724.526 455.829L723.206 455.829L723.206 452.767C723.206 452.526 723.136 452.334 722.998 452.192C722.862 452.049 722.682 451.977 722.458 451.977C722.307 451.977 722.17 452.016 722.049 452.093C721.929 452.167 721.835 452.273 721.764 452.409C721.694 452.543 721.659 452.701 721.659 452.882L721.659 455.829L720.297 455.829Z" fill="white"/>
<rect x="592.795" y="337.5" width="40" height="17" rx="8.5" fill="#696969"/>
<path d="M600.745 349.589C600.267 349.589 599.842 349.507 599.469 349.343C599.099 349.177 598.806 348.949 598.59 348.659C598.377 348.367 598.268 348.031 598.261 347.649H599.655C599.663 347.809 599.715 347.95 599.811 348.071C599.909 348.191 600.039 348.283 600.201 348.349C600.363 348.415 600.545 348.448 600.748 348.448C600.959 348.448 601.145 348.411 601.307 348.337C601.469 348.262 601.596 348.159 601.687 348.027C601.779 347.894 601.825 347.742 601.825 347.57C601.825 347.395 601.776 347.24 601.678 347.106C601.582 346.97 601.443 346.863 601.262 346.787C601.083 346.71 600.87 346.671 600.623 346.671H600.013V345.655H600.623C600.832 345.655 601.016 345.619 601.176 345.546C601.338 345.474 601.464 345.374 601.553 345.246C601.643 345.116 601.687 344.965 601.687 344.792C601.687 344.628 601.648 344.484 601.569 344.361C601.492 344.235 601.384 344.137 601.243 344.067C601.105 343.996 600.943 343.961 600.757 343.961C600.57 343.961 600.398 343.995 600.243 344.064C600.087 344.13 599.963 344.224 599.869 344.348C599.775 344.472 599.725 344.616 599.719 344.783H598.392C598.399 344.405 598.506 344.073 598.715 343.785C598.924 343.498 599.205 343.273 599.559 343.111C599.915 342.947 600.316 342.865 600.764 342.865C601.215 342.865 601.611 342.947 601.949 343.111C602.288 343.275 602.551 343.497 602.739 343.776C602.928 344.053 603.022 344.364 603.02 344.709C603.022 345.076 602.908 345.381 602.678 345.626C602.45 345.871 602.153 346.027 601.786 346.093V346.144C602.268 346.206 602.634 346.373 602.886 346.646C603.139 346.916 603.265 347.255 603.263 347.662C603.265 348.035 603.158 348.366 602.94 348.656C602.725 348.946 602.428 349.174 602.049 349.34C601.669 349.506 601.235 349.589 600.745 349.589ZM604.882 349.583C604.671 349.583 604.49 349.508 604.338 349.359C604.189 349.208 604.115 349.027 604.115 348.816C604.115 348.607 604.189 348.428 604.338 348.279C604.49 348.13 604.671 348.055 604.882 348.055C605.086 348.055 605.265 348.13 605.419 348.279C605.572 348.428 605.649 348.607 605.649 348.816C605.649 348.957 605.613 349.086 605.54 349.203C605.47 349.318 605.377 349.41 605.262 349.481C605.147 349.549 605.02 349.583 604.882 349.583ZM606.767 349.5L609.48 344.131V344.086H606.319V342.954H610.912V344.102L608.195 349.5H606.767ZM611.86 349.5V348.503L614.19 346.345C614.388 346.154 614.555 345.981 614.689 345.828C614.825 345.674 614.928 345.524 614.999 345.377C615.069 345.228 615.104 345.067 615.104 344.894C615.104 344.703 615.061 344.538 614.973 344.399C614.886 344.258 614.767 344.151 614.615 344.076C614.464 344 614.292 343.961 614.101 343.961C613.9 343.961 613.726 344.002 613.577 344.083C613.427 344.164 613.312 344.28 613.231 344.431C613.15 344.582 613.11 344.762 613.11 344.971H611.796C611.796 344.543 611.893 344.171 612.087 343.856C612.281 343.54 612.553 343.296 612.902 343.124C613.252 342.951 613.654 342.865 614.11 342.865C614.579 342.865 614.987 342.948 615.334 343.114C615.684 343.278 615.955 343.506 616.149 343.798C616.343 344.09 616.44 344.425 616.44 344.802C616.44 345.049 616.391 345.293 616.293 345.534C616.197 345.774 616.026 346.042 615.779 346.336C615.531 346.628 615.183 346.978 614.734 347.387L613.778 348.324V348.369H616.527V349.5H611.86ZM619.625 349.5V344.591H620.923V345.457H620.98C621.082 345.169 621.253 344.942 621.492 344.776C621.73 344.61 622.016 344.527 622.348 344.527C622.685 344.527 622.971 344.611 623.208 344.779C623.444 344.946 623.602 345.171 623.681 345.457H623.732C623.832 345.176 624.013 344.951 624.275 344.783C624.539 344.612 624.852 344.527 625.212 344.527C625.67 344.527 626.042 344.673 626.327 344.965C626.615 345.255 626.759 345.666 626.759 346.198V349.5H625.4V346.467C625.4 346.194 625.328 345.99 625.183 345.853C625.038 345.717 624.857 345.649 624.64 345.649C624.392 345.649 624.2 345.728 624.061 345.885C623.923 346.041 623.853 346.246 623.853 346.502V349.5H622.533V346.438C622.533 346.197 622.464 346.006 622.326 345.863C622.189 345.72 622.009 345.649 621.786 345.649C621.634 345.649 621.498 345.687 621.376 345.764C621.257 345.838 621.162 345.944 621.092 346.08C621.022 346.214 620.987 346.372 620.987 346.553V349.5H619.625Z" fill="white"/>
<rect x="521.37" y="293.5" width="41" height="17" rx="8.5" fill="#696969"/>
<path d="M529.291 305.589C528.839 305.589 528.437 305.506 528.083 305.34C527.731 305.174 527.452 304.945 527.246 304.653C527.039 304.361 526.931 304.027 526.923 303.65H528.265C528.28 303.903 528.387 304.109 528.585 304.266C528.783 304.424 529.018 304.503 529.291 304.503C529.508 304.503 529.7 304.455 529.866 304.359C530.035 304.261 530.166 304.126 530.259 303.953C530.355 303.778 530.403 303.578 530.403 303.352C530.403 303.122 530.354 302.92 530.256 302.745C530.16 302.57 530.027 302.434 529.857 302.336C529.686 302.238 529.491 302.188 529.272 302.186C529.08 302.186 528.894 302.225 528.713 302.304C528.534 302.383 528.394 302.49 528.294 302.627L527.063 302.406L527.373 298.955H531.375V300.086H528.514L528.345 301.725H528.383C528.498 301.564 528.672 301.429 528.904 301.323C529.137 301.216 529.397 301.163 529.684 301.163C530.078 301.163 530.43 301.256 530.739 301.441C531.048 301.626 531.292 301.881 531.471 302.205C531.65 302.527 531.738 302.897 531.736 303.317C531.738 303.758 531.636 304.15 531.429 304.493C531.225 304.834 530.938 305.103 530.569 305.299C530.203 305.493 529.777 305.589 529.291 305.589ZM533.299 305.583C533.088 305.583 532.907 305.509 532.756 305.359C532.606 305.208 532.532 305.027 532.532 304.816C532.532 304.607 532.606 304.428 532.756 304.279C532.907 304.13 533.088 304.055 533.299 304.055C533.503 304.055 533.682 304.13 533.836 304.279C533.989 304.428 534.066 304.607 534.066 304.816C534.066 304.957 534.03 305.086 533.957 305.203C533.887 305.318 533.794 305.411 533.679 305.481C533.564 305.549 533.437 305.583 533.299 305.583ZM537.349 305.589C536.857 305.589 536.419 305.51 536.035 305.35C535.654 305.188 535.355 304.967 535.137 304.688C534.92 304.409 534.811 304.093 534.811 303.739C534.811 303.466 534.873 303.216 534.997 302.988C535.122 302.758 535.293 302.567 535.508 302.416C535.723 302.262 535.964 302.164 536.23 302.122V302.077C535.881 302.007 535.598 301.837 535.38 301.569C535.163 301.298 535.054 300.984 535.054 300.626C535.054 300.287 535.153 299.986 535.351 299.722C535.55 299.455 535.821 299.246 536.166 299.095C536.514 298.942 536.908 298.865 537.349 298.865C537.79 298.865 538.183 298.942 538.528 299.095C538.876 299.249 539.148 299.458 539.347 299.725C539.545 299.989 539.645 300.289 539.647 300.626C539.645 300.986 539.534 301.3 539.315 301.569C539.095 301.837 538.814 302.007 538.471 302.077V302.122C538.733 302.164 538.97 302.262 539.184 302.416C539.399 302.567 539.569 302.758 539.695 302.988C539.823 303.216 539.888 303.466 539.89 303.739C539.888 304.093 539.778 304.409 539.561 304.688C539.343 304.967 539.043 305.188 538.659 305.35C538.278 305.51 537.841 305.589 537.349 305.589ZM537.349 304.573C537.568 304.573 537.76 304.534 537.924 304.455C538.088 304.374 538.216 304.263 538.308 304.123C538.402 303.98 538.448 303.816 538.448 303.63C538.448 303.441 538.401 303.273 538.305 303.129C538.209 302.982 538.079 302.866 537.915 302.783C537.751 302.698 537.562 302.656 537.349 302.656C537.138 302.656 536.95 302.698 536.783 302.783C536.617 302.866 536.486 302.982 536.39 303.129C536.296 303.273 536.25 303.441 536.25 303.63C536.25 303.816 536.295 303.98 536.387 304.123C536.479 304.263 536.608 304.374 536.774 304.455C536.94 304.534 537.132 304.573 537.349 304.573ZM537.349 301.649C537.532 301.649 537.695 301.612 537.838 301.537C537.981 301.462 538.093 301.359 538.174 301.227C538.255 301.095 538.295 300.942 538.295 300.77C538.295 300.599 538.255 300.45 538.174 300.322C538.093 300.192 537.982 300.091 537.841 300.019C537.701 299.944 537.537 299.907 537.349 299.907C537.164 299.907 537 299.944 536.857 300.019C536.714 300.091 536.602 300.192 536.521 300.322C536.442 300.45 536.403 300.599 536.403 300.77C536.403 300.942 536.443 301.095 536.524 301.227C536.605 301.359 536.717 301.462 536.86 301.537C537.003 301.612 537.166 301.649 537.349 301.649ZM543.37 305.589C543.033 305.587 542.708 305.531 542.395 305.42C542.084 305.309 541.805 305.129 541.557 304.88C541.31 304.631 541.114 304.3 540.969 303.889C540.827 303.478 540.755 302.973 540.755 302.374C540.757 301.825 540.82 301.333 540.944 300.901C541.069 300.466 541.248 300.098 541.481 299.795C541.715 299.493 541.995 299.262 542.321 299.105C542.647 298.945 543.013 298.865 543.417 298.865C543.854 298.865 544.24 298.95 544.574 299.121C544.909 299.289 545.177 299.518 545.38 299.808C545.584 300.098 545.708 300.423 545.751 300.783H544.386C544.333 300.555 544.221 300.376 544.05 300.246C543.88 300.116 543.669 300.051 543.417 300.051C542.991 300.051 542.667 300.236 542.446 300.607C542.226 300.978 542.115 301.482 542.11 302.119H542.155C542.253 301.925 542.385 301.76 542.551 301.623C542.72 301.485 542.91 301.379 543.123 301.307C543.339 301.232 543.566 301.195 543.804 301.195C544.192 301.195 544.537 301.287 544.84 301.47C545.142 301.651 545.381 301.9 545.556 302.218C545.73 302.535 545.818 302.898 545.818 303.308C545.818 303.751 545.714 304.145 545.508 304.49C545.303 304.835 545.017 305.106 544.648 305.302C544.281 305.496 543.855 305.592 543.37 305.589ZM543.363 304.503C543.576 304.503 543.767 304.452 543.935 304.349C544.104 304.247 544.236 304.109 544.332 303.934C544.427 303.759 544.475 303.563 544.475 303.346C544.475 303.129 544.427 302.934 544.332 302.761C544.238 302.588 544.108 302.451 543.942 302.349C543.775 302.246 543.586 302.195 543.373 302.195C543.213 302.195 543.065 302.225 542.928 302.285C542.794 302.344 542.676 302.428 542.574 302.534C542.474 302.641 542.395 302.764 542.337 302.905C542.28 303.043 542.251 303.191 542.251 303.349C542.251 303.56 542.299 303.753 542.395 303.928C542.493 304.102 542.625 304.242 542.791 304.346C542.959 304.451 543.15 304.503 543.363 304.503ZM548.895 305.5V300.591H550.192V301.457H550.25C550.352 301.169 550.522 300.942 550.761 300.776C551 300.61 551.285 300.527 551.618 300.527C551.954 300.527 552.241 300.611 552.477 300.779C552.714 300.946 552.872 301.172 552.95 301.457H553.002C553.102 301.176 553.283 300.951 553.545 300.783C553.809 300.612 554.121 300.527 554.481 300.527C554.939 300.527 555.311 300.673 555.597 300.965C555.884 301.255 556.028 301.666 556.028 302.199V305.5H554.67V302.467C554.67 302.194 554.597 301.99 554.453 301.853C554.308 301.717 554.127 301.649 553.909 301.649C553.662 301.649 553.469 301.728 553.331 301.885C553.192 302.041 553.123 302.246 553.123 302.502V305.5H551.803V302.438C551.803 302.197 551.734 302.006 551.595 301.863C551.459 301.72 551.279 301.649 551.055 301.649C550.904 301.649 550.768 301.687 550.646 301.764C550.527 301.838 550.432 301.944 550.362 302.08C550.291 302.214 550.256 302.372 550.256 302.553V305.5H548.895Z" fill="white"/>
</svg>
