<svg width="1134" height="2268" viewBox="0 0 1134 2268" fill="none" xmlns="http://www.w3.org/2000/svg">
<g clip-path="url(#clip0_4_6809)">
<rect width="52.9134" height="60.4724" transform="matrix(1 0 0 -1 161 1417.47)"/>
<rect width="52.9134" height="60.4724" transform="matrix(1 0 0 -1 161 1417.47)" fill="#92D57D"/>
<rect width="31" height="3" transform="matrix(1 0 0 -1 171.976 1359.47)" fill="#FF0000"/>
<rect width="29" height="3" transform="matrix(1 0 0 -1 172.976 1417.47)" fill="#296DFF"/>
</g>
<rect x="0.5" y="-0.5" width="51.9134" height="59.4724" transform="matrix(1 0 0 -1 161 1416.47)" stroke="black" stroke-linecap="round" stroke-linejoin="round" stroke-dasharray="7 7"/>
<path d="M167.731 1395V1394.14C167.731 1392.98 167.905 1392.03 168.251 1391.28C168.598 1390.53 169.078 1389.92 169.691 1389.44C170.318 1388.95 171.045 1388.51 171.871 1388.14L172.951 1387.66C173.831 1387.26 174.505 1386.86 174.971 1386.46C175.438 1386.05 175.671 1385.49 175.671 1384.78C175.671 1384.35 175.578 1383.95 175.391 1383.58C175.205 1383.19 174.898 1382.89 174.471 1382.66C174.058 1382.42 173.505 1382.3 172.811 1382.3C172.118 1382.3 171.545 1382.43 171.091 1382.7C170.638 1382.97 170.298 1383.32 170.071 1383.76C169.845 1384.19 169.731 1384.67 169.731 1385.2H167.991C167.991 1384.25 168.205 1383.45 168.631 1382.8C169.058 1382.13 169.631 1381.63 170.351 1381.28C171.085 1380.93 171.911 1380.76 172.831 1380.76C173.725 1380.76 174.511 1380.91 175.191 1381.22C175.885 1381.51 176.431 1381.95 176.831 1382.54C177.245 1383.13 177.451 1383.85 177.451 1384.7C177.451 1385.69 177.151 1386.52 176.551 1387.2C175.951 1387.87 175.118 1388.45 174.051 1388.96L172.271 1389.78C171.538 1390.11 170.978 1390.47 170.591 1390.86C170.205 1391.25 169.938 1391.66 169.791 1392.1C169.645 1392.54 169.571 1393.01 169.571 1393.5H177.671V1395H167.731ZM186.372 1399.4V1385.08H188.172V1386.7C188.492 1386.22 188.945 1385.79 189.532 1385.42C190.119 1385.03 190.865 1384.84 191.772 1384.84C192.745 1384.84 193.599 1385.07 194.332 1385.52C195.065 1385.97 195.639 1386.59 196.052 1387.38C196.465 1388.17 196.672 1389.06 196.672 1390.06C196.672 1391.06 196.465 1391.95 196.052 1392.74C195.639 1393.51 195.065 1394.13 194.332 1394.58C193.599 1395.02 192.739 1395.24 191.752 1395.24C190.939 1395.24 190.225 1395.08 189.612 1394.76C188.999 1394.43 188.519 1393.97 188.172 1393.38V1399.4H186.372ZM191.512 1393.68C192.165 1393.68 192.739 1393.53 193.232 1393.22C193.739 1392.91 194.132 1392.49 194.412 1391.94C194.705 1391.39 194.852 1390.76 194.852 1390.04C194.852 1389.32 194.705 1388.69 194.412 1388.14C194.132 1387.59 193.739 1387.17 193.232 1386.86C192.739 1386.55 192.165 1386.4 191.512 1386.4C190.872 1386.4 190.299 1386.55 189.792 1386.86C189.299 1387.17 188.912 1387.59 188.632 1388.14C188.352 1388.69 188.212 1389.32 188.212 1390.04C188.212 1390.76 188.352 1391.39 188.632 1391.94C188.912 1392.49 189.299 1392.91 189.792 1393.22C190.299 1393.53 190.872 1393.68 191.512 1393.68ZM200.003 1391.68L199.483 1390.16L204.643 1385.08H206.843L200.003 1391.68ZM198.423 1395V1380.6H200.223V1395H198.423ZM205.123 1395L201.023 1389.72L202.163 1388.54L207.403 1395H205.123Z" fill="black"/>
<defs>
<clipPath id="clip0_4_6809">
<rect width="52.9134" height="60.4724" transform="matrix(1 0 0 -1 161 1417.47)" fill="white"/>
</clipPath>
</defs>
</svg>
